# xmcd CD database file
#
# Track frame offsets:
#	150
#	36282
#	71655
#	108756
#	155957
#	201022
#	246472
#	283199
#
# Disc length: 4183 seconds
#
# Revision: 0
# Processed by: cddbd v1.5.2PL0 Copyright (c) Steve Scherf et al.
# Submitted via: CDex 1.51
#
DISCID=79105508
DTITLE=Bhajans for Beginners - Bhajans for Beginners 2009 Vol. 2 CD3
DYEAR=2009
DGENRE=Bhajans
TTITLE0=1
TTITLE1=2
TTITLE2=3
TTITLE3=4
TTITLE4=5
TTITLE5=6
TTITLE6=7
TTITLE7=8
EXTD=YEAR: 2009
EXTT0=
EXTT1=
EXTT2=
EXTT3=
EXTT4=
EXTT5=
EXTT6=
EXTT7=
PLAYORDER=
